<svg width="40" height="11" viewBox="0 0 40 11" fill="none" xmlns="http://www.w3.org/2000/svg">
<path d="M33.5319 0.326416C33.6792 -0.108805 34.3208 -0.108806 34.4681 0.326415L35.5471 3.51352C35.613 3.70815 35.802 3.83993 36.0152 3.83993H39.5069C39.9837 3.83993 40.1819 4.42552 39.7962 4.6945L36.9714 6.66424C36.7989 6.78453 36.7267 6.99775 36.7926 7.19239L37.8715 10.3795C38.0189 10.8147 37.4999 11.1766 37.1141 10.9076L34.2893 8.9379C34.1168 8.81761 33.8832 8.81761 33.7107 8.9379L30.8859 10.9076C30.5001 11.1766 29.9811 10.8147 30.1285 10.3795L31.2074 7.19239C31.2733 6.99775 31.2012 6.78453 31.0286 6.66424L28.2038 4.6945C27.8181 4.42552 28.0163 3.83993 28.4931 3.83993H31.9848C32.198 3.83993 32.387 3.70815 32.4529 3.51352L33.5319 0.326416Z" fill="#FFD336"/>
<path d="M19.5319 0.326416C19.6792 -0.108805 20.3208 -0.108806 20.4681 0.326415L21.5471 3.51352C21.613 3.70815 21.802 3.83993 22.0152 3.83993H25.5069C25.9837 3.83993 26.1819 4.42552 25.7962 4.6945L22.9714 6.66424C22.7989 6.78453 22.7267 6.99775 22.7926 7.19239L23.8715 10.3795C24.0189 10.8147 23.4999 11.1766 23.1141 10.9076L20.2893 8.9379C20.1168 8.81761 19.8832 8.81761 19.7107 8.9379L16.8859 10.9076C16.5001 11.1766 15.9811 10.8147 16.1285 10.3795L17.2074 7.19239C17.2733 6.99775 17.2012 6.78453 17.0286 6.66424L14.2038 4.6945C13.8181 4.42552 14.0163 3.83993 14.4931 3.83993H17.9848C18.198 3.83993 18.387 3.70815 18.4529 3.51352L19.5319 0.326416Z" fill="#FFD336"/>
<path d="M5.53189 0.326416C5.67923 -0.108805 6.32077 -0.108806 6.46811 0.326415L7.54709 3.51352C7.61299 3.70815 7.80197 3.83993 8.01521 3.83993H11.5069C11.9837 3.83993 12.1819 4.42552 11.7962 4.6945L8.97136 6.66424C8.79885 6.78453 8.72666 6.99775 8.79256 7.19239L9.87154 10.3795C10.0189 10.8147 9.49986 11.1766 9.11411 10.9076L6.28931 8.9379C6.1168 8.81761 5.8832 8.81761 5.71069 8.9379L2.88589 10.9076C2.50014 11.1766 1.98112 10.8147 2.12846 10.3795L3.20744 7.19239C3.27334 6.99775 3.20115 6.78453 3.02864 6.66424L0.203837 4.6945C-0.181909 4.42552 0.0163376 3.83993 0.493147 3.83993H3.98479C4.19803 3.83993 4.38701 3.70815 4.45291 3.51352L5.53189 0.326416Z" fill="#FFD336"/>
</svg>
