<svg width="96" height="96" viewBox="0 0 96 96" fill="none" xmlns="http://www.w3.org/2000/svg">
<circle cx="48" cy="48" r="48" fill="#FFDFE6"/>
<mask id="mask0_1_1401" style="mask-type:alpha" maskUnits="userSpaceOnUse" x="0" y="0" width="96" height="96">
<circle cx="48" cy="48" r="48" fill="#FFEADF"/>
</mask>
<g mask="url(#mask0_1_1401)">
<path d="M19.8071 70.756L16.7804 95.9996H-1.92847L-1.30828 91.8137C-1.08252 89.0601 -0.392992 86.4162 0.691612 83.9512C2.53025 79.8415 5.56765 76.4967 9.2962 74.2008V74.1943C9.48713 74.0724 9.67934 73.9685 9.87027 73.8521C12.867 72.1251 16.2586 71.0463 19.8071 70.756Z" fill="#186BE7"/>
<path d="M96.8256 95.9996H78.0639L74.8401 69.069C76.9693 69.2434 79.0498 69.7014 81.0152 70.4196C86.692 72.4721 91.4633 76.6354 93.9566 82.2758C95.0412 84.723 95.7249 87.3727 95.9565 90.127L96.8256 95.9996Z" fill="#186BE7"/>
<path d="M84.2608 72.1138L81.0621 96H12.1603L9.29639 74.2008V74.1944C9.48731 74.0724 9.67953 73.9686 9.87046 73.8522C14.1934 71.303 24.0074 68.3705 31.0181 66.468C35.9645 65.1266 41.0669 64.4616 46.1936 64.4848L51.6446 64.5106C55.4506 64.5277 59.2427 64.9267 62.9703 65.6994C69.0022 66.9482 77.9519 68.9529 81.0138 70.42C82.1864 70.9702 83.2701 71.5394 84.2608 72.1138Z" fill="#0D6EFD"/>
<path d="M63.3843 41.2077C63.3843 41.2077 64.9294 45.4446 58.0206 47.9066L58.5012 82.5343L38.0072 73.3482L39.8258 53.3316L47.6883 49.9526L49.5631 46.5659C49.5631 46.5659 52.2848 43.0544 52.6137 42.7087C52.942 42.3627 55.854 39.8009 55.854 39.8009L62.112 41.6892L63.3843 41.2077Z" fill="#FAB9C9"/>
<path d="M54.4916 51.4601C55.7771 46.366 52.4556 46.5554 48.7287 48.077L47.6905 49.9524L40.395 53.0875L39.6223 55.803L38.9011 64.4715C38.9008 64.4715 51.8651 61.872 54.4916 51.4601Z" fill="#1B1E28"/>
<path d="M34.1496 38.3844C34.1496 38.3844 28.4641 35.8076 30.4611 29.9617C32.4578 24.1159 32.5074 24.1162 32.093 21.3607C31.6779 18.6055 32.7377 11.7463 40.7853 13.6682C48.8336 15.5903 49.9233 15.798 54.0308 14.0826C58.1383 12.3672 63.8052 16.1102 62.9212 25.2073C62.1703 32.9395 60.5314 30.8009 62.0891 34.9419C63.6474 39.0827 62.7309 40.1176 60.0002 40.7704C53.6735 42.2823 50.6006 39.2675 50.6006 39.1252C50.6006 38.983 49.3528 35.8121 48.573 35.3964C47.7931 34.9803 40.6708 33.0053 40.5154 33.213C40.3593 33.4207 38.0085 36.6825 38.0085 36.6825L34.1496 38.3844Z" fill="#1B1E28"/>
<path d="M30.9012 39.2423C33.2119 39.3681 35.5553 39.2549 37.8703 39.2336C38.0512 39.232 38.0519 38.9501 37.8703 38.9518C35.5553 38.9701 33.2103 38.8956 30.9012 39.0608C30.7847 39.0685 30.7838 39.2368 30.9012 39.2423Z" fill="#1B1E28"/>
<path d="M34.1628 30.4045V48.2597C34.1628 48.2597 33.6049 56.7379 39.9693 57.0778C46.3337 57.4177 50.1713 57.1023 52.2366 54.8428C54.3014 52.5836 56.2448 48.5509 54.7864 37.8381C53.3293 27.1246 51.7993 25.3034 51.7993 25.3034L43.8555 22.8981L36.3485 24.2097L34.1628 30.4045Z" fill="#FAB9C9"/>
<path d="M34.1528 49.016C34.1919 51.1003 34.7733 56.8007 39.9693 57.0778C46.3337 57.4177 50.1713 57.1023 52.2367 54.8428C53.7737 53.1609 55.2418 50.494 55.2918 44.8224C55.2825 42.9786 55.1293 40.8332 54.7867 38.3141C54.5871 36.8428 54.4094 35.5066 54.2507 34.2875C52.9778 26.7072 51.7997 25.3037 51.7997 25.3037L43.8559 22.8984L36.3488 24.21L34.2638 30.1191L34.1628 30.8805V31.0624C34.1628 31.0624 34.5453 30.0788 36.1308 30.1336C37.7163 30.1881 37.5518 29.4408 39.4101 27.3819C41.269 25.3237 42.1798 27.9286 43.6482 29.1493C45.1166 30.37 47.19 28.7484 49.5946 28.6755C52.0003 28.6023 51.5258 31.4814 51.0711 32.2651C50.6151 33.0485 50.1961 34.1598 51.6545 34.6884C53.1116 35.2164 53.6212 35.4531 53.8044 39.0239C53.986 42.5951 53.0207 45.1281 51.1801 46.3298C49.3402 47.5327 45.4594 47.2592 42.7626 45.2007C40.0661 43.1418 37.1412 45.1191 35.7302 45.7289C34.9849 46.0505 34.2618 45.6338 34.1632 45.5728V48.2593V48.7351C34.1628 48.7357 34.1564 48.8392 34.1528 49.016Z" fill="#E5A0B1"/>
<path d="M39.6604 35.0293C39.3715 37.3217 39.0273 39.9101 39.3312 42.2048C39.4427 43.0479 39.9404 43.7 41.0785 43.4626C41.3694 43.4016 41.2456 43.0537 40.955 43.1011C39.1667 43.3936 39.782 39.6866 39.7991 39.0358C39.8356 37.7003 39.9001 36.3654 39.8856 35.0293C39.8839 34.9103 39.6743 34.9148 39.6604 35.0293Z" fill="#EAAABA"/>
<path d="M43.3921 41.0484C43.906 41.0484 44.3226 40.6318 44.3226 40.1179C44.3226 39.604 43.906 39.1875 43.3921 39.1875C42.8782 39.1875 42.4617 39.604 42.4617 40.1179C42.4617 40.6318 42.8782 41.0484 43.3921 41.0484Z" fill="#1B1E28"/>
<path d="M36.3275 41.0484C36.8414 41.0484 37.258 40.6318 37.258 40.1179C37.258 39.604 36.8414 39.1875 36.3275 39.1875C35.8137 39.1875 35.3971 39.604 35.3971 40.1179C35.3971 40.6318 35.8137 41.0484 36.3275 41.0484Z" fill="#1B1E28"/>
<path d="M34.6137 36.8763C35.1597 36.6566 35.6122 36.348 36.2163 36.2741C36.8839 36.1906 37.4189 36.3844 38.0368 36.5941C38.2932 36.6805 38.3939 36.3274 38.2081 36.1887C37.2199 35.4511 35.1613 35.5707 34.4383 36.6476C34.366 36.754 34.4876 36.9276 34.6137 36.8763Z" fill="#1B1E28"/>
<path d="M42.5813 36.5874C43.1544 36.3652 43.6063 36.1172 44.2481 36.1465C44.8899 36.1765 45.4127 36.4416 46.0041 36.6509C46.2618 36.7425 46.3576 36.3852 46.1748 36.2455C45.2408 35.5322 43.1651 35.2477 42.4052 36.3587C42.3311 36.4655 42.4552 36.6361 42.5813 36.5874Z" fill="#1B1E28"/>
<path d="M48.1857 41.8952C48.5156 42.7067 47.8889 43.7274 46.7853 44.176C45.6817 44.6253 44.5203 44.3308 44.1907 43.5197C43.8608 42.7099 44.4881 41.6888 45.5917 41.2396C46.6947 40.7919 47.8567 41.0848 48.1857 41.8952Z" fill="#EAAABA"/>
<path d="M35.64 41.4183C35.136 41.1922 34.6151 41.1235 34.161 41.1909V44.2957C34.2113 44.3222 34.2623 44.348 34.3155 44.3718C35.4246 44.8695 36.6214 44.6124 36.9869 43.7961C37.3526 42.9815 36.7492 41.9172 35.64 41.4183Z" fill="#EAAABA"/>
<path d="M38.9073 38.5736C39.0989 40.5616 38.0085 42.4892 36.0008 43.0185C33.7374 43.6151 31.435 42.0603 31.0854 39.7737C30.7578 37.6238 32.2484 35.6104 34.3951 35.2818C36.621 34.9425 38.4713 36.4689 38.9109 38.603C38.9399 38.7413 39.1502 38.6823 39.1211 38.5453C38.6632 36.3212 36.6839 34.6767 34.3476 35.0457C32.0952 35.4017 30.5165 37.5487 30.8471 39.805C31.177 42.0571 33.3504 43.6512 35.5941 43.322C37.9336 42.9791 39.344 40.8412 39.126 38.573C39.1124 38.4353 38.8941 38.4343 38.9073 38.5736Z" fill="#1B1E28"/>
<path d="M48.9324 39.2799C48.8166 41.4291 47.2047 43.2471 44.9652 43.2471C42.8147 43.2471 40.9973 41.4291 40.9973 39.2799C40.9973 37.2774 42.5657 35.5626 44.5411 35.3569C46.9364 35.1089 48.8072 36.9414 48.9324 39.2799C48.9398 39.4195 49.1585 39.4205 49.151 39.2799C49.0282 37.0059 47.3388 35.094 44.9652 35.094C42.6937 35.094 40.768 37.0007 40.779 39.2799C40.7896 41.4781 42.5441 43.3377 44.743 43.4529C47.2021 43.5822 49.0236 41.641 49.151 39.2799C49.1588 39.139 48.9401 39.139 48.9324 39.2799Z" fill="#1B1E28"/>
<path d="M38.9373 39.0392C39.5375 39.1456 40.2577 39.1511 40.8618 39.0662C40.9463 39.0546 40.9463 38.9085 40.8618 38.8966C40.2577 38.8131 39.5388 38.8176 38.9373 38.924C38.8793 38.9337 38.8793 39.0285 38.9373 39.0392Z" fill="#1B1E28"/>
<path d="M48.8651 39.1129C51.1763 39.2383 53.5196 39.1251 55.8343 39.1042C56.0152 39.1026 56.0159 38.8204 55.8343 38.8217C53.5193 38.8404 51.1743 38.7659 48.8651 38.9307C48.7487 38.9391 48.7481 39.1064 48.8651 39.1129Z" fill="#1B1E28"/>
<path d="M63.3696 41.2077C61.6419 36.8041 55.024 39.8009 55.024 39.8009L54.4868 44.1081L57.7482 42.8628C57.8653 43.155 60.9059 43.2133 60.9059 43.2133L63.3696 41.2077Z" fill="#FAB9C9"/>
<path d="M57.593 40.0122C59.4071 39.7345 61.159 41.3238 60.9529 43.1776C60.9213 43.4692 60.4604 43.4724 60.4917 43.1776C60.661 41.6538 59.262 40.2199 57.7152 40.4563C57.425 40.5011 57.3001 40.0573 57.593 40.0122Z" fill="#E6A0B1"/>
<path d="M60.1039 41.3654C59.3437 41.6976 58.7748 42.311 58.5265 43.1063C58.4394 43.3895 57.9943 43.2685 58.083 42.9841C58.3627 42.083 59.0035 41.3464 59.8714 40.9674C60.1413 40.85 60.3761 41.2467 60.1039 41.3654Z" fill="#E6A0B1"/>
<path d="M36.814 15.4448C34.1527 17.2438 33.6079 20.6646 34.8367 23.505C34.8764 23.5972 35.0105 23.5172 34.9715 23.4263C33.7786 20.6701 34.3033 17.3295 36.8927 15.5793C36.9759 15.5232 36.8972 15.3877 36.814 15.4448Z" fill="white"/>
<path d="M32.1832 34.6556C32.4061 35.1055 32.6102 35.5603 32.885 35.9815C32.9398 36.0653 33.0753 35.9873 33.0198 35.9028C32.7444 35.4813 32.5405 35.0265 32.318 34.5773C32.2735 34.4873 32.1387 34.5663 32.1832 34.6556Z" fill="white"/>
<path d="M51.8768 29.6779C51.8768 29.8515 51.8768 30.0243 51.8768 30.1978C51.8768 30.2981 52.0329 30.2981 52.0329 30.1978C52.0329 30.0243 52.0329 29.8515 52.0329 29.6779C52.0329 29.5776 51.8768 29.5776 51.8768 29.6779Z" fill="white"/>
<path d="M51.6762 31.9261C51.6291 31.99 51.6195 32.0703 51.5724 32.1341C51.5124 32.2151 51.6478 32.2925 51.7072 32.2128C51.7549 32.149 51.7646 32.0687 51.811 32.0048C51.8707 31.9239 51.7352 31.8458 51.6762 31.9261Z" fill="white"/>
<path d="M60.7089 31.6017C60.5251 33.3532 60.5603 34.7552 61.2317 36.4048C61.2695 36.4967 61.4201 36.4571 61.3823 36.3639C60.7222 34.7413 60.6844 33.3184 60.865 31.6017C60.876 31.5014 60.7193 31.5023 60.7089 31.6017Z" fill="white"/>
<path d="M39.9691 57.0778C46.3335 57.4177 50.1711 57.1023 52.2364 54.8428C54.3011 52.5836 56.2446 48.551 54.7862 37.8381C53.3291 27.1246 53.0314 23.3096 53.0314 23.3096L47.4946 20.3071L35.3998 21.0482L34.1626 30.4042V30.5861C34.1626 30.5861 34.5451 29.6028 36.1306 29.657C37.716 29.7118 37.5516 28.9645 39.4099 26.906C41.2688 24.8477 42.1796 27.4526 43.648 28.6733C45.1164 29.8937 47.1898 28.2724 49.5944 28.1996C52 28.1263 51.5256 31.0051 51.0709 31.7888C50.6149 32.5725 50.1959 33.6835 51.6543 34.2121C53.1114 34.7404 53.621 34.9768 53.8042 38.5476C53.9857 42.1188 53.0205 44.6518 51.1799 45.8538C49.34 47.0564 45.4592 46.7833 42.7624 44.7244C40.0658 42.6658 37.141 44.6431 35.73 45.253C34.9847 45.5742 34.2616 45.1575 34.1629 45.0969V48.2594C34.1626 48.2597 33.6047 56.7379 39.9691 57.0778Z" fill="#1B1E28"/>
<path d="M33.4174 25.1035C33.4741 26.7406 32.4756 28.0696 31.858 29.5177C31.4213 30.541 31.3591 31.6505 31.3901 32.7451C31.3926 32.8454 31.5487 32.846 31.5458 32.7451C31.4987 31.0796 31.8793 29.7786 32.6062 28.2941C33.1303 27.2247 33.6154 26.3223 33.5731 25.1035C33.5699 25.0032 33.4138 25.0029 33.4174 25.1035Z" fill="white"/>
<path d="M51.8299 17.5889C53.6673 17.8698 55.5453 17.4818 57.3549 17.9956C60.8748 18.9938 60.0546 24.22 58.9574 26.676C58.9165 26.7669 59.0513 26.8459 59.0916 26.7543C60.1875 24.3023 60.6293 21.1188 58.9158 18.8335C57.4065 16.821 53.9679 17.7589 51.8715 17.4386C51.7735 17.4234 51.7306 17.5737 51.8299 17.5889Z" fill="white"/>
<path d="M42.9324 25.8312C43.0898 30.5373 48.9895 25.3091 51.0136 27.6541C51.079 27.7299 51.1893 27.6196 51.1239 27.5435C49.0566 25.1478 43.2362 30.2487 43.0888 25.8309C43.0856 25.7309 42.9295 25.7306 42.9324 25.8312Z" fill="white"/>
<path d="M39.7367 57.1911C42.3484 57.2081 45.0007 57.5249 47.6005 57.1443C50.3999 56.7344 52.304 55.6459 53.7621 53.2142C53.8137 53.1277 53.6789 53.0497 53.6273 53.1358C52.0273 55.8026 49.8049 56.7863 46.7771 57.0775C44.4376 57.3023 42.0788 57.0501 39.7367 57.035C39.6367 57.0343 39.6367 57.1904 39.7367 57.1911Z" fill="white"/>
<path d="M39.362 47.0697C40.017 48.531 42.7219 47.9428 42.7245 46.347C42.7245 46.1767 42.4907 46.1135 42.4046 46.2606C42.0998 46.7801 41.9001 47.2684 41.2493 47.4361C40.5679 47.6122 40.0702 47.2516 39.5468 46.8843C39.4236 46.7982 39.313 46.9601 39.362 47.0697Z" fill="white"/>
<path d="M38.5415 68.7211C44.2112 75.3606 50.3957 74.4943 56.9166 68.7211L56.9172 95.9994H38.5418V68.7211H38.5415Z" fill="#E3EEF1"/>
<path d="M39.0389 61.8306L26.1539 66.2529C32.0901 76.4387 35.231 86.3247 35.2039 95.8723H40.963C43.9136 85.5709 42.9045 74.117 39.0389 61.8306Z" fill="#186BE7"/>
<path d="M58.068 61.8306L70.9532 66.2529C65.0165 76.4387 61.8758 86.3247 61.9026 95.8723H56.1435C53.1938 85.5709 54.2027 74.117 58.068 61.8306Z" fill="#186BE7"/>
</g>
</svg>
