<svg width="14" height="14" viewBox="0 0 14 14" fill="none" xmlns="http://www.w3.org/2000/svg">
<path d="M7.00008 3.22246L6.59749 3.59719C6.70153 3.70897 6.84737 3.77246 7.00008 3.77246C7.15279 3.77246 7.29863 3.70897 7.40267 3.59719L7.00008 3.22246ZM7.44636 2.743L7.04377 2.36827L7.04377 2.36827L7.44636 2.743ZM6.5538 2.743L6.95639 2.36827L6.5538 2.743ZM2.09102 7.53763L1.68843 7.91236L2.09102 7.53763ZM6.10752 11.8528L6.51012 11.4781L6.10752 11.8528ZM7.89264 11.8528L7.49005 11.4781L7.89264 11.8528ZM11.9091 7.53763L11.5066 7.1629L11.9091 7.53763ZM11.9091 2.743L12.3117 2.36827L11.9091 2.743ZM2.09102 2.743L1.68843 2.36827L2.09102 2.743ZM7.40267 3.59719L7.84895 3.11773L7.04377 2.36827L6.59749 2.84774L7.40267 3.59719ZM6.15121 3.11773L6.59749 3.59719L7.40267 2.84774L6.95639 2.36827L6.15121 3.11773ZM1.68843 7.91236L5.70493 12.2275L6.51012 11.4781L2.49361 7.1629L1.68843 7.91236ZM8.29523 12.2275L12.3117 7.91236L11.5066 7.1629L7.49005 11.4781L8.29523 12.2275ZM11.5066 3.11773C12.5424 4.23057 12.5424 6.05006 11.5066 7.1629L12.3117 7.91236C13.7406 6.3772 13.7406 3.90343 12.3117 2.36827L11.5066 3.11773ZM12.3117 2.36827C10.8618 0.810576 8.49365 0.810575 7.04377 2.36827L7.84895 3.11773C8.86379 2.02742 10.4917 2.02742 11.5066 3.11773L12.3117 2.36827ZM2.49361 3.11773C3.50845 2.02742 5.13637 2.02742 6.15121 3.11773L6.95639 2.36827C5.50651 0.810576 3.13832 0.810575 1.68843 2.36827L2.49361 3.11773ZM5.70493 12.2275C6.4154 12.9908 7.58476 12.9908 8.29523 12.2275L7.49005 11.4781C7.21462 11.774 6.78554 11.774 6.51012 11.4781L5.70493 12.2275ZM1.68843 2.36827C0.259521 3.90343 0.259521 6.3772 1.68843 7.91236L2.49361 7.1629C1.45779 6.05006 1.45779 4.23057 2.49361 3.11773L1.68843 2.36827Z" fill="#FE2352"/>
</svg>
