<svg width="26" height="26" viewBox="0 0 26 26" fill="none" xmlns="http://www.w3.org/2000/svg">
<path d="M17.3333 24.6458H8.66667C2.4375 24.6458 2.4375 21.3417 2.4375 18.4167V17.3333C2.4375 14.9175 2.4375 12.1875 7.58333 12.1875C8.8725 12.1875 9.34917 12.5017 10.0208 13C10.0533 13.0325 10.0967 13.0542 10.1292 13.0975L11.2342 14.2675C12.1658 15.2533 13.8558 15.2533 14.7875 14.2675L15.8925 13.0975C15.925 13.065 15.9575 13.0325 16.0008 13C16.6725 12.4908 17.1492 12.1875 18.4383 12.1875C23.5842 12.1875 23.5842 14.9175 23.5842 17.3333V18.4167C23.5625 22.555 21.4717 24.6458 17.3333 24.6458ZM7.58333 13.8125C4.0625 13.8125 4.0625 14.9175 4.0625 17.3333V18.4167C4.0625 21.385 4.0625 23.0208 8.66667 23.0208H17.3333C20.5617 23.0208 21.9375 21.645 21.9375 18.4167V17.3333C21.9375 14.9175 21.9375 13.8125 18.4167 13.8125C17.6367 13.8125 17.4742 13.91 17.0083 14.2567L15.9575 15.3725C15.1775 16.1958 14.1267 16.6508 13 16.6508C11.8733 16.6508 10.8225 16.1958 10.0425 15.3725L8.99167 14.2567C8.52583 13.91 8.36333 13.8125 7.58333 13.8125Z" fill="white"/>
<path d="M20.5833 13.8125C20.1391 13.8125 19.7708 13.4442 19.7708 13V6.5C19.7708 4.08417 19.7708 2.97917 16.25 2.97917H9.74996C6.22913 2.97917 6.22913 4.08417 6.22913 6.5V13C6.22913 13.4442 5.86079 13.8125 5.41663 13.8125C4.97246 13.8125 4.60413 13.4442 4.60413 13V6.5C4.60413 4.08417 4.60413 1.35417 9.74996 1.35417H16.25C21.3958 1.35417 21.3958 4.08417 21.3958 6.5V13C21.3958 13.4442 21.0275 13.8125 20.5833 13.8125Z" fill="white"/>
<path d="M15.0365 10.8116H11.429C10.9848 10.8116 10.6165 10.4433 10.6165 9.99915C10.6165 9.55498 10.9848 9.18665 11.429 9.18665H15.0365C15.4806 9.18665 15.849 9.55498 15.849 9.99915C15.849 10.4433 15.4915 10.8116 15.0365 10.8116Z" fill="white"/>
<path d="M15.9463 7.56165H10.5297C10.0855 7.56165 9.71716 7.19331 9.71716 6.74915C9.71716 6.30498 10.0855 5.93665 10.5297 5.93665H15.9463C16.3905 5.93665 16.7588 6.30498 16.7588 6.74915C16.7588 7.19331 16.4013 7.56165 15.9463 7.56165Z" fill="white"/>
</svg>
