<svg width="14" height="14" viewBox="0 0 14 14" fill="none" xmlns="http://www.w3.org/2000/svg">
<path d="M6.99996 3.22246L6.59737 3.59719C6.70141 3.70897 6.84725 3.77246 6.99996 3.77246C7.15267 3.77246 7.29851 3.70897 7.40255 3.59719L6.99996 3.22246ZM7.44624 2.743L7.04364 2.36827L7.04364 2.36827L7.44624 2.743ZM6.55368 2.743L6.95627 2.36827L6.55368 2.743ZM2.0909 7.53763L1.68831 7.91236L2.0909 7.53763ZM6.1074 11.8528L6.50999 11.4781L6.1074 11.8528ZM7.89252 11.8528L7.48992 11.4781L7.89252 11.8528ZM11.909 7.53763L11.5064 7.1629L11.909 7.53763ZM11.909 2.743L12.3116 2.36827L11.909 2.743ZM2.0909 2.743L1.68831 2.36827L2.0909 2.743ZM7.40255 3.59719L7.84883 3.11773L7.04364 2.36827L6.59737 2.84774L7.40255 3.59719ZM6.15109 3.11773L6.59737 3.59719L7.40255 2.84774L6.95627 2.36827L6.15109 3.11773ZM1.68831 7.91236L5.70481 12.2275L6.50999 11.4781L2.49349 7.1629L1.68831 7.91236ZM8.29511 12.2275L12.3116 7.91236L11.5064 7.1629L7.48992 11.4781L8.29511 12.2275ZM11.5064 3.11773C12.5422 4.23057 12.5422 6.05006 11.5064 7.1629L12.3116 7.91236C13.7405 6.3772 13.7405 3.90343 12.3116 2.36827L11.5064 3.11773ZM12.3116 2.36827C10.8617 0.810576 8.49353 0.810575 7.04364 2.36827L7.84883 3.11773C8.86367 2.02742 10.4916 2.02742 11.5064 3.11773L12.3116 2.36827ZM2.49349 3.11773C3.50833 2.02742 5.13625 2.02742 6.15109 3.11773L6.95627 2.36827C5.50639 0.810576 3.13819 0.810575 1.68831 2.36827L2.49349 3.11773ZM5.70481 12.2275C6.41528 12.9908 7.58464 12.9908 8.29511 12.2275L7.48992 11.4781C7.2145 11.774 6.78542 11.774 6.50999 11.4781L5.70481 12.2275ZM1.68831 2.36827C0.259399 3.90343 0.259398 6.3772 1.68831 7.91236L2.49349 7.1629C1.45767 6.05006 1.45767 4.23057 2.49349 3.11773L1.68831 2.36827Z" fill="white"/>
</svg>
