<svg width="18" height="18" viewBox="0 0 18 18" fill="none" xmlns="http://www.w3.org/2000/svg">
<path d="M7.58591 12.1642L7.05558 11.6339L7.58591 12.1642ZM6.00012 1.74998H12.0001V0.249977H6.00012V1.74998ZM14.2501 3.99998V14.3358H15.7501V3.99998H14.2501ZM3.75012 14.3358V3.99998H2.25012V14.3358H3.75012ZM13.8233 14.5125L10.9447 11.6339L9.88401 12.6945L12.7627 15.5732L13.8233 14.5125ZM7.05558 11.6339L4.1769 14.5125L5.23756 15.5732L8.11624 12.6945L7.05558 11.6339ZM10.9447 11.6339C9.87073 10.5599 8.12952 10.5599 7.05558 11.6339L8.11624 12.6945C8.60439 12.2064 9.39585 12.2064 9.88401 12.6945L10.9447 11.6339ZM2.25012 14.3358C2.25012 15.8948 4.13512 16.6756 5.23756 15.5732L4.1769 14.5125C4.01941 14.67 3.75012 14.5585 3.75012 14.3358H2.25012ZM14.2501 14.3358C14.2501 14.5585 13.9808 14.67 13.8233 14.5125L12.7627 15.5732C13.8651 16.6756 15.7501 15.8948 15.7501 14.3358H14.2501ZM12.0001 1.74998C13.2428 1.74998 14.2501 2.75734 14.2501 3.99998H15.7501C15.7501 1.92891 14.0712 0.249977 12.0001 0.249977V1.74998ZM6.00012 0.249977C3.92905 0.249977 2.25012 1.92891 2.25012 3.99998H3.75012C3.75012 2.75734 4.75748 1.74998 6.00012 1.74998V0.249977Z" fill="white"/>
</svg>
