<svg width="97" height="8" viewBox="0 0 97 8" fill="none" xmlns="http://www.w3.org/2000/svg">
<path d="M6.62877 6.61924L7.28458 5.39657L4.68151 4.00527L7.28458 2.62451L6.62877 1.38076L4.15685 3.09881L4.31829 0H2.9663L3.12773 3.09881L0.655814 1.38076L0 2.62451L2.61317 4.00527L0 5.39657L0.655814 6.61924L3.12773 4.92227L2.9663 8H4.31829L4.15685 4.93281L6.62877 6.61924Z" fill="#7D848D"/>
<path d="M16.5972 6.61924L17.253 5.39657L14.6499 4.00527L17.253 2.62451L16.5972 1.38076L14.1252 3.09881L14.2867 0H12.9347L13.0961 3.09881L10.6242 1.38076L9.96838 2.62451L12.5815 4.00527L9.96838 5.39657L10.6242 6.61924L13.0961 4.92227L12.9347 8H14.2867L14.1252 4.93281L16.5972 6.61924Z" fill="#7D848D"/>
<path d="M26.5655 6.61924L27.2213 5.39657L24.6183 4.00527L27.2213 2.62451L26.5655 1.38076L24.0936 3.09881L24.255 0H22.9031L23.0645 3.09881L20.5926 1.38076L19.9368 2.62451L22.5499 4.00527L19.9368 5.39657L20.5926 6.61924L23.0645 4.92227L22.9031 8H24.255L24.0936 4.93281L26.5655 6.61924Z" fill="#7D848D"/>
<path d="M36.5339 6.61924L37.1897 5.39657L34.5866 4.00527L37.1897 2.62451L36.5339 1.38076L34.062 3.09881L34.2234 0H32.8714L33.0329 3.09881L30.561 1.38076L29.9051 2.62451L32.5183 4.00527L29.9051 5.39657L30.561 6.61924L33.0329 4.92227L32.8714 8H34.2234L34.062 4.93281L36.5339 6.61924Z" fill="#7D848D"/>
<path d="M46.5023 6.61924L47.1581 5.39657L44.555 4.00527L47.1581 2.62451L46.5023 1.38076L44.0304 3.09881L44.1918 0H42.8398L43.0012 3.09881L40.5293 1.38076L39.8735 2.62451L42.4867 4.00527L39.8735 5.39657L40.5293 6.61924L43.0012 4.92227L42.8398 8H44.1918L44.0304 4.93281L46.5023 6.61924Z" fill="#7D848D"/>
<path d="M56.4707 6.61924L57.1265 5.39657L54.5234 4.00527L57.1265 2.62451L56.4707 1.38076L53.9988 3.09881L54.1602 0H52.8082L52.9696 3.09881L50.4977 1.38076L49.8419 2.62451L52.4551 4.00527L49.8419 5.39657L50.4977 6.61924L52.9696 4.92227L52.8082 8H54.1602L53.9988 4.93281L56.4707 6.61924Z" fill="#7D848D"/>
<path d="M66.439 6.61924L67.0949 5.39657L64.4918 4.00527L67.0949 2.62451L66.439 1.38076L63.9671 3.09881L64.1286 0H62.7766L62.938 3.09881L60.4661 1.38076L59.8103 2.62451L62.4234 4.00527L59.8103 5.39657L60.4661 6.61924L62.938 4.92227L62.7766 8H64.1286L63.9671 4.93281L66.439 6.61924Z" fill="#7D848D"/>
<path d="M76.4074 6.61924L77.0632 5.39657L74.4602 4.00527L77.0632 2.62451L76.4074 1.38076L73.9355 3.09881L74.0969 0H72.745L72.9064 3.09881L70.4345 1.38076L69.7787 2.62451L72.3918 4.00527L69.7787 5.39657L70.4345 6.61924L72.9064 4.92227L72.745 8H74.0969L73.9355 4.93281L76.4074 6.61924Z" fill="#7D848D"/>
<path d="M86.3758 6.61924L87.0316 5.39657L84.4285 4.00527L87.0316 2.62451L86.3758 1.38076L83.9039 3.09881L84.0653 0H82.7133L82.8748 3.09881L80.4028 1.38076L79.747 2.62451L82.3602 4.00527L79.747 5.39657L80.4028 6.61924L82.8748 4.92227L82.7133 8H84.0653L83.9039 4.93281L86.3758 6.61924Z" fill="#7D848D"/>
<path d="M96.3442 6.61924L97 5.39657L94.3969 4.00527L97 2.62451L96.3442 1.38076L93.8723 3.09881L94.0337 0H92.6817L92.8431 3.09881L90.3712 1.38076L89.7154 2.62451L92.3286 4.00527L89.7154 5.39657L90.3712 6.61924L92.8431 4.92227L92.6817 8H94.0337L93.8723 4.93281L96.3442 6.61924Z" fill="#7D848D"/>
</svg>
