<svg width="275" height="48" viewBox="0 0 275 48" fill="none" xmlns="http://www.w3.org/2000/svg">
<path d="M0 24C0 16.5449 0 12.8174 1.21793 9.87706C2.84183 5.95662 5.95662 2.84183 9.87706 1.21793C12.8174 0 16.5449 0 24 0H251C258.455 0 262.183 0 265.123 1.21793C269.043 2.84183 272.158 5.95662 273.782 9.87706C275 12.8174 275 16.5449 275 24C275 31.4551 275 35.1826 273.782 38.1229C272.158 42.0434 269.043 45.1582 265.123 46.7821C262.183 48 258.455 48 251 48H24C16.5449 48 12.8174 48 9.87706 46.7821C5.95662 45.1582 2.84183 42.0434 1.21793 38.1229C0 35.1826 0 31.4551 0 24Z" fill="#F7F7F9"/>
</svg>
