<svg width="56" height="24" viewBox="0 0 56 24" fill="none" xmlns="http://www.w3.org/2000/svg">
<path fill-rule="evenodd" clip-rule="evenodd" d="M41.5315 6.41431C41.2081 6.67307 41.1556 7.14504 41.4144 7.46849L45.0396 12L41.4144 16.5314C41.1556 16.8549 41.2081 17.3269 41.5315 17.5856C41.855 17.8444 42.3269 17.7919 42.5857 17.4685L46.5857 12.4685C46.8048 12.1946 46.8048 11.8054 46.5857 11.5314L42.5857 6.53145C42.3269 6.208 41.855 6.15556 41.5315 6.41431Z" fill="#1B1E28"/>
<path fill-rule="evenodd" clip-rule="evenodd" d="M14.4685 6.41431C14.7919 6.67307 14.8444 7.14504 14.5856 7.46849L10.9604 12L14.5856 16.5314C14.8444 16.8549 14.7919 17.3269 14.4685 17.5856C14.145 17.8444 13.6731 17.7919 13.4143 17.4685L9.41432 12.4685C9.19519 12.1946 9.19519 11.8054 9.41432 11.5314L13.4143 6.53145C13.6731 6.208 14.145 6.15556 14.4685 6.41431Z" fill="#1B1E28"/>
</svg>
