<svg width="24" height="24" viewBox="0 0 24 24" fill="none" xmlns="http://www.w3.org/2000/svg">
<path fill-rule="evenodd" clip-rule="evenodd" d="M9.06703 13.57L7.22803 11.125L8.57803 10.672C8.82303 10.59 9.09203 10.628 9.30403 10.775L10.476 11.584L13.295 10.343L10.35 6.61199L12.748 6.10199L16.621 9.13499L20.751 7.48899C21.762 7.08599 22.878 7.75999 22.991 8.84199V8.84199C23.067 9.55999 22.664 10.244 21.998 10.526L14.595 13.66C14.405 13.74 14.203 13.784 13.997 13.789L9.74303 13.895C9.47803 13.904 9.22603 13.782 9.06703 13.57Z" stroke="#7D848D" stroke-width="1.4" stroke-linecap="round" stroke-linejoin="round"/>
<path d="M20.035 7.79999C18.59 4.96099 15.648 3.01199 12.245 3.01199C7.415 3.01199 3.5 6.92899 3.5 11.762C3.5 16.594 7.415 20.512 12.245 20.512C17.075 20.512 20.99 16.595 20.99 11.762C20.99 11.501 20.973 11.245 20.951 10.99" stroke="#7D848D" stroke-width="1.4" stroke-linecap="round" stroke-linejoin="round"/>
<path d="M3.52002 12.349C1.65602 13.716 0.647024 15.233 1.09702 16.293C1.73502 17.873 5.33502 17.908 9.13802 16.371" stroke="#7D848D" stroke-width="1.4" stroke-linecap="round" stroke-linejoin="round"/>
</svg>
