<svg width="41" height="24" viewBox="0 0 41 24" fill="none" xmlns="http://www.w3.org/2000/svg">
<path opacity="0.2" d="M0.75 0V24" stroke="#7D848D" stroke-width="1.5"/>
<path d="M36.5 11C36.5 10.5858 36.1642 10.25 35.75 10.25C35.3358 10.25 35 10.5858 35 11H36.5ZM22.5 11C22.5 10.5858 22.1642 10.25 21.75 10.25C21.3358 10.25 21 10.5858 21 11H22.5ZM31.75 22.75C32.1642 22.75 32.5 22.4142 32.5 22C32.5 21.5858 32.1642 21.25 31.75 21.25V22.75ZM25.75 21.25C25.3358 21.25 25 21.5858 25 22C25 22.4142 25.3358 22.75 25.75 22.75V21.25ZM32 6V12H33.5V6H32ZM25.5 12V6H24V12H25.5ZM28.75 15.25C26.9551 15.25 25.5 13.7949 25.5 12H24C24 14.6234 26.1266 16.75 28.75 16.75V15.25ZM32 12C32 13.7949 30.5449 15.25 28.75 15.25V16.75C31.3734 16.75 33.5 14.6234 33.5 12H32ZM28.75 2.75C30.5449 2.75 32 4.20507 32 6H33.5C33.5 3.37665 31.3734 1.25 28.75 1.25V2.75ZM28.75 1.25C26.1266 1.25 24 3.37665 24 6H25.5C25.5 4.20507 26.9551 2.75 28.75 2.75V1.25ZM35 11V12H36.5V11H35ZM22.5 12V11H21V12H22.5ZM28.75 18.25C25.2982 18.25 22.5 15.4518 22.5 12H21C21 16.2802 24.4698 19.75 28.75 19.75V18.25ZM35 12C35 15.4518 32.2018 18.25 28.75 18.25V19.75C33.0302 19.75 36.5 16.2802 36.5 12H35ZM28 19V22H29.5V19H28ZM28.75 22.75H31.75V21.25H28.75V22.75ZM28.75 21.25H25.75V22.75H28.75V21.25Z" fill="#7D848D"/>
</svg>
