<svg width="24" height="24" viewBox="0 0 24 24" fill="none" xmlns="http://www.w3.org/2000/svg">
<path d="M9.00013 4.75H15.9525V3.25H9.00013V4.75ZM18.2025 7V18.5858H19.7025V7H18.2025ZM6.75013 18.5858V7H5.25013V18.5858H6.75013ZM17.7757 18.7626L14.4209 15.4077L13.3602 16.4684L16.7151 19.8232L17.7757 18.7626ZM10.5318 15.4077L7.17691 18.7626L8.23757 19.8232L11.5924 16.4684L10.5318 15.4077ZM14.4209 15.4077C13.3469 14.3338 11.6057 14.3338 10.5318 15.4077L11.5924 16.4684C12.0806 15.9802 12.872 15.9802 13.3602 16.4684L14.4209 15.4077ZM5.25013 18.5858C5.25013 20.1449 7.13513 20.9257 8.23757 19.8232L7.17691 18.7626C7.01942 18.9201 6.75013 18.8085 6.75013 18.5858H5.25013ZM18.2025 18.5858C18.2025 18.8085 17.9332 18.9201 17.7757 18.7626L16.7151 19.8232C17.8175 20.9257 19.7025 20.1449 19.7025 18.5858H18.2025ZM15.9525 4.75C17.1952 4.75 18.2025 5.75736 18.2025 7H19.7025C19.7025 4.92893 18.0236 3.25 15.9525 3.25V4.75ZM9.00013 3.25C6.92906 3.25 5.25013 4.92893 5.25013 7H6.75013C6.75013 5.75736 7.75749 4.75 9.00013 4.75V3.25Z" fill="white"/>
</svg>
