<svg width="9" height="5" viewBox="0 0 9 5" fill="none" xmlns="http://www.w3.org/2000/svg">
<path d="M4.33223 3.70576C4.37002 3.75738 4.43017 3.78788 4.49414 3.78788C4.55812 3.78788 4.61826 3.75738 4.65605 3.70576L7.21964 0.204612C7.31381 0.0760026 7.46366 4.76837e-07 7.62306 4.76837e-07H8.48752C8.90075 4.76837e-07 9.13561 0.472826 8.88593 0.802104L5.85285 4.8021C5.75832 4.92677 5.61089 5 5.45444 5H3.53384C3.37739 5 3.22996 4.92677 3.13543 4.8021L0.102351 0.802104C-0.147331 0.472825 0.0875273 4.76837e-07 0.500765 4.76837e-07H1.36522C1.52462 4.76837e-07 1.67447 0.0760026 1.76864 0.204612L4.33223 3.70576Z" fill="#1B1E28"/>
</svg>
