<svg width="16" height="16" viewBox="0 0 16 16" fill="none" xmlns="http://www.w3.org/2000/svg">
<circle cx="8" cy="7.33333" r="2" stroke="white" stroke-width="1.1"/>
<path d="M13.45 7.25925C13.45 8.71185 12.6015 10.441 11.4236 11.8353C10.842 12.5239 10.2009 13.1051 9.58476 13.5098C8.95739 13.9219 8.40859 14.1167 8 14.1167V15.2167C8.71641 15.2167 9.48011 14.8946 10.1887 14.4292C10.9085 13.9564 11.6268 13.2994 12.2639 12.5452C13.5235 11.054 14.55 9.07946 14.55 7.25925H13.45ZM8 14.1167C7.59141 14.1167 7.04261 13.9219 6.41524 13.5098C5.79909 13.1051 5.15803 12.5239 4.57641 11.8353C3.39853 10.441 2.55 8.71185 2.55 7.25925H1.45C1.45 9.07946 2.47647 11.054 3.73609 12.5452C4.37322 13.2994 5.09153 13.9564 5.81133 14.4292C6.51989 14.8946 7.28359 15.2167 8 15.2167V14.1167ZM2.55 7.25925C2.55 4.29663 4.98359 1.88333 8 1.88333V0.783328C4.389 0.783328 1.45 3.67628 1.45 7.25925H2.55ZM8 1.88333C11.0164 1.88333 13.45 4.29663 13.45 7.25925H14.55C14.55 3.67628 11.611 0.783328 8 0.783328V1.88333Z" fill="white"/>
</svg>
