<svg width="375" height="461" viewBox="0 0 375 461" fill="none" xmlns="http://www.w3.org/2000/svg">
<path d="M0 54.4902C0 40.9162 0 34.1292 2.17288 28.5375C5.04241 21.1531 10.7227 14.948 17.8254 11.4388C23.2038 8.78147 29.8585 8.19261 43.168 7.01489C148.146 -2.27432 222.785 -2.4225 331.755 7.07588C345.092 8.23842 351.76 8.81969 357.146 11.4741C364.261 14.9806 369.948 21.1846 372.823 28.577C375 34.173 375 40.9706 375 54.5657V413C375 427.91 375 435.365 372.564 441.246C369.316 449.087 363.087 455.316 355.246 458.564C349.365 461 341.91 461 327 461H48C33.0899 461 25.6348 461 19.7541 458.564C11.9132 455.316 5.68366 449.087 2.43585 441.246C0 435.365 0 427.91 0 413V54.4902Z" fill="white"/>
</svg>
