<svg width="295" height="56" viewBox="0 0 295 56" fill="none" xmlns="http://www.w3.org/2000/svg">
<path d="M0 24C0 16.5449 0 12.8174 1.21793 9.87706C2.84183 5.95662 5.95662 2.84183 9.87706 1.21793C12.8174 0 16.5449 0 24 0H271C278.455 0 282.183 0 285.123 1.21793C289.043 2.84183 292.158 5.95662 293.782 9.87706C295 12.8174 295 16.5449 295 24V32C295 39.4551 295 43.1826 293.782 46.1229C292.158 50.0434 289.043 53.1582 285.123 54.7821C282.183 56 278.455 56 271 56H24C16.5449 56 12.8174 56 9.87706 54.7821C5.95662 53.1582 2.84183 50.0434 1.21793 46.1229C0 43.1826 0 39.4551 0 32V24Z" fill="#0D6EFD"/>
</svg>
