<svg width="20" height="20" viewBox="0 0 20 20" fill="none" xmlns="http://www.w3.org/2000/svg">
<path d="M12.5 13.3333L12.3529 14.0688C12.6846 14.1351 13.0196 13.9713 13.1708 13.6687L12.5 13.3333ZM6.66667 7.5L6.33126 6.82918C6.02875 6.98043 5.8649 7.31544 5.93123 7.64709L6.66667 7.5ZM6.96168 7.35249L7.29709 8.02331H7.29709L6.96168 7.35249ZM7.76379 5.2428L8.46014 4.96425L7.76379 5.2428ZM7.08574 3.54768L6.38938 3.82623L7.08574 3.54768ZM16.4523 12.9143L16.7309 12.2179L16.4523 12.9143ZM14.7572 12.2362L15.0357 11.5399L14.7572 12.2362ZM12.6475 13.0383L13.3183 13.3737L13.3183 13.3737L12.6475 13.0383ZM16.75 14.4617V15.8333H18.25V14.4617H16.75ZM4.16667 3.25H5.53828V1.75H4.16667V3.25ZM12.5 13.3333C12.6471 12.5979 12.6473 12.5979 12.6475 12.598C12.6476 12.598 12.6478 12.598 12.6479 12.5981C12.6481 12.5981 12.6483 12.5981 12.6485 12.5982C12.6488 12.5982 12.649 12.5983 12.6491 12.5983C12.6493 12.5983 12.649 12.5983 12.6482 12.5981C12.6467 12.5978 12.6432 12.5971 12.6379 12.5959C12.6272 12.5935 12.6092 12.5894 12.5845 12.5834C12.535 12.5714 12.4586 12.5516 12.3601 12.5227C12.1627 12.4646 11.8787 12.3701 11.5454 12.2273C10.8754 11.9402 10.0272 11.4666 9.28033 10.7197L8.21967 11.7803C9.13942 12.7001 10.1663 13.2682 10.9546 13.606C11.3504 13.7757 11.6914 13.8895 11.9368 13.9617C12.0597 13.9978 12.1591 14.0237 12.23 14.0409C12.2654 14.0496 12.2938 14.056 12.3145 14.0606C12.3249 14.0629 12.3333 14.0647 12.3397 14.066C12.3429 14.0667 12.3456 14.0673 12.3478 14.0677C12.3489 14.068 12.3499 14.0682 12.3508 14.0683C12.3512 14.0684 12.3516 14.0685 12.3519 14.0686C12.3521 14.0686 12.3524 14.0687 12.3524 14.0687C12.3527 14.0687 12.3529 14.0688 12.5 13.3333ZM9.28033 10.7197C8.53341 9.97275 8.05984 9.12458 7.77269 8.45456C7.62985 8.12127 7.53537 7.83726 7.47734 7.63994C7.44837 7.54144 7.42863 7.46505 7.41658 7.41551C7.41055 7.39076 7.40647 7.37276 7.40412 7.36211C7.40294 7.35679 7.4022 7.35331 7.40187 7.35175C7.40171 7.35098 7.40165 7.35068 7.40169 7.35087C7.40171 7.35096 7.40175 7.35118 7.40182 7.35152C7.40186 7.35169 7.4019 7.35189 7.40194 7.35212C7.40197 7.35224 7.40201 7.35244 7.40202 7.35249C7.40206 7.3527 7.4021 7.35291 6.66667 7.5C5.93123 7.64709 5.93128 7.64732 5.93132 7.64755C5.93134 7.64764 5.93139 7.64789 5.93143 7.64807C5.9315 7.64843 5.93158 7.64882 5.93166 7.64924C5.93184 7.65009 5.93204 7.65106 5.93226 7.65217C5.93271 7.65437 5.93328 7.65709 5.93395 7.6603C5.9353 7.66673 5.93711 7.67515 5.93939 7.68549C5.94396 7.70618 5.95045 7.73457 5.95907 7.77004C5.97632 7.84094 6.00215 7.94033 6.03829 8.06319C6.11046 8.30857 6.22431 8.64956 6.39397 9.04544C6.73182 9.83375 7.29992 10.8606 8.21967 11.7803L9.28033 10.7197ZM7.00208 8.17082L7.29709 8.02331L6.62627 6.68167L6.33126 6.82918L7.00208 8.17082ZM8.46014 4.96425L7.7821 3.26914L6.38938 3.82623L7.06743 5.52134L8.46014 4.96425ZM16.7309 12.2179L15.0357 11.5399L14.4787 12.9326L16.1738 13.6106L16.7309 12.2179ZM11.9767 12.7029L11.8292 12.9979L13.1708 13.6687L13.3183 13.3737L11.9767 12.7029ZM15.0357 11.5399C13.8688 11.0731 12.5388 11.5787 11.9767 12.7029L13.3183 13.3737C13.5315 12.9473 14.036 12.7555 14.4787 12.9326L15.0357 11.5399ZM7.29709 8.02331C8.42128 7.46122 8.92694 6.13124 8.46014 4.96425L7.06743 5.52134C7.24449 5.96399 7.05269 6.46846 6.62627 6.68167L7.29709 8.02331ZM5.53828 3.25C5.91311 3.25 6.25017 3.47821 6.38938 3.82623L7.7821 3.26914C7.41509 2.35163 6.52646 1.75 5.53828 1.75V3.25ZM18.25 14.4617C18.25 13.4735 17.6484 12.5849 16.7309 12.2179L16.1738 13.6106C16.5218 13.7498 16.75 14.0869 16.75 14.4617H18.25ZM15.8333 16.75C8.88375 16.75 3.25 11.1162 3.25 4.16667H1.75C1.75 11.9447 8.05532 18.25 15.8333 18.25V16.75ZM15.8333 18.25C17.168 18.25 18.25 17.168 18.25 15.8333H16.75C16.75 16.3396 16.3396 16.75 15.8333 16.75V18.25ZM3.25 4.16667C3.25 3.66041 3.66041 3.25 4.16667 3.25V1.75C2.83198 1.75 1.75 2.83198 1.75 4.16667H3.25Z" fill="#1B1E28"/>
</svg>
