<svg width="13" height="12" viewBox="0 0 13 12" fill="none" xmlns="http://www.w3.org/2000/svg">
<path d="M5.76302 0.35609C5.91651 -0.118696 6.58486 -0.118697 6.73836 0.356089L7.86242 3.83293C7.93107 4.04526 8.12795 4.18902 8.35009 4.18902H11.9876C12.4844 4.18902 12.6909 4.82784 12.289 5.12127L9.3462 7.27007C9.16648 7.4013 9.09127 7.63391 9.15992 7.84624L10.284 11.3231C10.4375 11.7979 9.89678 12.1927 9.49491 11.8992L6.55209 9.75044C6.37237 9.61921 6.12901 9.61921 5.94929 9.75044L3.00646 11.8992C2.6046 12.1927 2.0639 11.7979 2.21739 11.3231L3.34145 7.84624C3.4101 7.63391 3.3349 7.4013 3.15518 7.27007L0.212354 5.12127C-0.18951 4.82784 0.0170203 4.18902 0.513751 4.18902H4.15128C4.37343 4.18902 4.57031 4.04526 4.63896 3.83293L5.76302 0.35609Z" fill="#FFD336"/>
</svg>
