<svg width="24" height="24" viewBox="0 0 24 24" fill="none" xmlns="http://www.w3.org/2000/svg">
<path d="M20 11.5C20 6.805 16.195 3 11.5 3C6.805 3 3 6.805 3 11.5C3 16.195 6.805 20 11.5 20" stroke="#7D848D" stroke-width="1.5" stroke-linecap="round" stroke-linejoin="round"/>
<path d="M19.27 19.27L21 21" stroke="#7D848D" stroke-width="1.5" stroke-linecap="round" stroke-linejoin="round"/>
<path d="M19.2678 15.7322C20.2441 16.7085 20.2441 18.2914 19.2678 19.2677C18.2915 20.244 16.7085 20.244 15.7322 19.2677C14.7559 18.2914 14.7559 16.7085 15.7322 15.7322C16.7085 14.7559 18.2915 14.7559 19.2678 15.7322" stroke="#7D848D" stroke-width="1.5" stroke-linecap="round" stroke-linejoin="round"/>
<path d="M3.88696 15.281H3.94496C6.77796 15.281 8.66696 15.119 8.66696 12.448C8.66696 9.615 11.5 9.615 11.5 7.726C11.5 5.614 7.72196 5.837 7.72196 3.948V3.88" stroke="#7D848D" stroke-width="1.5" stroke-linecap="round" stroke-linejoin="round"/>
<path d="M19.9999 11.5H16.9319C14.8269 11.5 13.7099 9.01302 15.1079 7.43902L17.1389 5.15302" stroke="#7D848D" stroke-width="1.5" stroke-linecap="round" stroke-linejoin="round"/>
</svg>
