<svg width="14" height="9" viewBox="0 0 14 9" fill="none" xmlns="http://www.w3.org/2000/svg">
<path d="M1.33131 4.43407C1.02956 4.12836 0.537122 4.12514 0.231408 4.42688C-0.0743064 4.72863 -0.077525 5.22107 0.224219 5.52678L1.33131 4.43407ZM3.79454 8.0369L3.241 8.58326C3.3924 8.73665 3.60066 8.82034 3.81611 8.81437C4.03155 8.80839 4.23485 8.71328 4.37752 8.55174L3.79454 8.0369ZM10.7882 1.29261C11.0725 0.97064 11.042 0.479133 10.72 0.194797C10.3981 -0.089539 9.90656 -0.0590316 9.62223 0.262937L10.7882 1.29261ZM0.224219 5.52678L3.241 8.58326L4.34809 7.49054L1.33131 4.43407L0.224219 5.52678ZM4.37752 8.55174L10.7882 1.29261L9.62223 0.262937L3.21157 7.52207L4.37752 8.55174Z" fill="#7D848D"/>
<path d="M6.22853 7.52207C5.9442 7.84403 5.9747 8.33554 6.29667 8.61988C6.61864 8.90421 7.11015 8.8737 7.39448 8.55174L6.22853 7.52207ZM13.8051 1.29261C14.0895 0.97064 14.059 0.479133 13.737 0.194797C13.415 -0.089539 12.9235 -0.0590316 12.6392 0.262937L13.8051 1.29261ZM7.39448 8.55174L13.8051 1.29261L12.6392 0.262937L6.22853 7.52207L7.39448 8.55174Z" fill="#7D848D"/>
</svg>
