<svg width="24" height="24" viewBox="0 0 24 24" fill="none" xmlns="http://www.w3.org/2000/svg">
<path d="M2 9.65356L11.0033 2.45092C11.7548 1.84969 12.8227 1.84969 13.5742 2.45092L22.5775 9.65356" stroke="#0D6EFD" stroke-width="1.5" stroke-linecap="round" stroke-linejoin="round"/>
<path d="M9.69354 3.53106L5.57804 6.87491C4.83082 7.48203 4.4572 7.78559 4.25746 8.20522C4.05774 8.62484 4.05774 9.10623 4.05774 10.069V13.769C4.05774 17.6491 4.05774 19.5892 5.26314 20.7945C6.46855 22 8.40861 22 12.2887 22C16.1688 22 18.109 22 19.3143 20.7945C20.5198 19.5892 20.5198 17.6491 20.5198 13.769V10.069C20.5198 9.10623 20.5198 8.62484 20.3201 8.20522C20.1202 7.78559 19.7467 7.48203 18.9995 6.87491L14.884 3.53106C13.6409 2.52106 13.0194 2.01605 12.2887 2.01605C11.5581 2.01605 10.9366 2.52106 9.69354 3.53106Z" stroke="#0D6EFD" stroke-width="1.5"/>
<path d="M9.97363 16.084H14.6036" stroke="#0D6EFD" stroke-width="1.5" stroke-linecap="round"/>
</svg>
