<svg width="24" height="24" viewBox="0 0 24 24" fill="none" xmlns="http://www.w3.org/2000/svg">
<path d="M9.00012 4.74998H15.9525V3.24998H9.00012V4.74998ZM18.2025 6.99998V18.5858H19.7025V6.99998H18.2025ZM6.75012 18.5858V6.99998H5.25012V18.5858H6.75012ZM17.7757 18.7625L14.4209 15.4077L13.3602 16.4683L16.7151 19.8232L17.7757 18.7625ZM10.5318 15.4077L7.1769 18.7625L8.23756 19.8232L11.5924 16.4683L10.5318 15.4077ZM14.4209 15.4077C13.3469 14.3337 11.6057 14.3337 10.5318 15.4077L11.5924 16.4683C12.0806 15.9802 12.872 15.9802 13.3602 16.4683L14.4209 15.4077ZM5.25012 18.5858C5.25012 20.1449 7.13512 20.9256 8.23756 19.8232L7.1769 18.7625C7.01941 18.92 6.75012 18.8085 6.75012 18.5858H5.25012ZM18.2025 18.5858C18.2025 18.8085 17.9332 18.92 17.7757 18.7625L16.7151 19.8232C17.8175 20.9256 19.7025 20.1449 19.7025 18.5858H18.2025ZM15.9525 4.74998C17.1951 4.74998 18.2025 5.75734 18.2025 6.99998H19.7025C19.7025 4.92892 18.0236 3.24998 15.9525 3.24998V4.74998ZM9.00012 3.24998C6.92905 3.24998 5.25012 4.92892 5.25012 6.99998H6.75012C6.75012 5.75734 7.75748 4.74998 9.00012 4.74998V3.24998Z" fill="#7D848D"/>
</svg>
