<svg width="12" height="9" viewBox="0 0 12 9" fill="none" xmlns="http://www.w3.org/2000/svg">
<path d="M1.31281 4.4358C0.994888 4.14298 0.499785 4.16332 0.206965 4.48124C-0.0858558 4.79916 -0.0655091 5.29427 0.25241 5.58709L1.31281 4.4358ZM4.12174 8.08696L3.59154 8.6626C3.9035 8.94993 4.38757 8.93648 4.68309 8.63227L4.12174 8.08696ZM11.7787 1.32792C12.0799 1.01789 12.0727 0.522426 11.7627 0.22126C11.4527 -0.0799071 10.9572 -0.0727264 10.656 0.237298L11.7787 1.32792ZM0.25241 5.58709L3.59154 8.6626L4.65194 7.51131L1.31281 4.4358L0.25241 5.58709ZM4.68309 8.63227L11.7787 1.32792L10.656 0.237298L3.56039 7.54165L4.68309 8.63227Z" fill="#0D6EFD"/>
</svg>
