<svg width="96" height="96" viewBox="0 0 96 96" fill="none" xmlns="http://www.w3.org/2000/svg">
<circle cx="48" cy="48" r="48" fill="#FFDFE6"/>
<mask id="mask0_1_1973" style="mask-type:alpha" maskUnits="userSpaceOnUse" x="0" y="0" width="96" height="96">
<circle cx="48" cy="48" r="48" fill="#FFEADF"/>
</mask>
<g mask="url(#mask0_1_1973)">
<path d="M19.8069 70.756L16.7801 95.9996H-1.92871L-1.30852 91.8137C-1.08277 89.0601 -0.393237 86.4162 0.691367 83.9512C2.53 79.8415 5.56741 76.4967 9.29596 74.2008V74.1943C9.48688 74.0724 9.6791 73.9685 9.87003 73.8521C12.8668 72.1251 16.2583 71.0463 19.8069 70.756Z" fill="#0D6EFD"/>
<path d="M96.8254 95.9996H78.0637L74.8398 69.069C76.9691 69.2434 79.0496 69.7014 81.015 70.4196C86.6918 72.4721 91.463 76.6354 93.9563 82.2758C95.041 84.723 95.7247 87.3727 95.9562 90.127L96.8254 95.9996Z" fill="#0D6EFD"/>
<path d="M84.2608 72.1138L81.0621 96H12.1603L9.29639 74.2008V74.1944C9.48731 74.0724 9.67953 73.9686 9.87046 73.8522C14.1934 71.303 24.0074 68.3705 31.0181 66.468C35.9645 65.1266 41.0669 64.4616 46.1936 64.4848L51.6446 64.5106C55.4506 64.5277 59.2427 64.9267 62.9703 65.6994C69.0022 66.9482 77.9519 68.9529 81.0138 70.42C82.1864 70.9702 83.2701 71.5394 84.2608 72.1138Z" fill="#0D6EFD"/>
<path d="M63.3839 41.2077C63.3839 41.2077 64.9291 45.4446 58.0203 47.9066L58.5008 82.5343L38.0068 73.3482L39.8255 53.3316L47.688 49.9526L49.5627 46.5659C49.5627 46.5659 52.2844 43.0544 52.6134 42.7087C52.9417 42.3627 55.8536 39.8009 55.8536 39.8009L62.1116 41.6892L63.3839 41.2077Z" fill="#FAB9C9"/>
<path d="M54.4914 51.4601C55.7769 46.366 52.4554 46.5554 48.7284 48.077L47.6903 49.9524L40.3948 53.0875L39.622 55.803L38.9009 64.4715C38.9006 64.4715 51.8648 61.872 54.4914 51.4601Z" fill="#1B1E28"/>
<path d="M34.1494 38.3844C34.1494 38.3844 28.4639 35.8076 30.4608 29.9617C32.4575 24.1159 32.5072 24.1162 32.0927 21.3607C31.6777 18.6055 32.7374 11.7463 40.7851 13.6682C48.8333 15.5903 49.9231 15.798 54.0306 14.0826C58.1381 12.3672 63.8049 16.1102 62.9209 25.2073C62.1701 32.9395 60.5311 30.8009 62.0888 34.9419C63.6472 39.0827 62.7306 40.1176 59.9999 40.7704C53.6732 42.2823 50.6004 39.2675 50.6004 39.1252C50.6004 38.983 49.3526 35.8121 48.5727 35.3964C47.7929 34.9803 40.6706 33.0053 40.5151 33.213C40.359 33.4207 38.0082 36.6825 38.0082 36.6825L34.1494 38.3844Z" fill="#1B1E28"/>
<path d="M30.9012 39.2423C33.2119 39.3681 35.5553 39.2549 37.8703 39.2336C38.0512 39.232 38.0519 38.9501 37.8703 38.9518C35.5553 38.9701 33.2103 38.8956 30.9012 39.0608C30.7847 39.0685 30.7838 39.2368 30.9012 39.2423Z" fill="#1B1E28"/>
<path d="M34.1623 30.4045V48.2597C34.1623 48.2597 33.6044 56.7379 39.9688 57.0778C46.3332 57.4177 50.1708 57.1023 52.2361 54.8428C54.3009 52.5836 56.2443 48.5509 54.7859 37.8381C53.3288 27.1246 51.7988 25.3034 51.7988 25.3034L43.8551 22.8981L36.348 24.2097L34.1623 30.4045Z" fill="#FAB9C9"/>
<path d="M34.1523 49.016C34.1914 51.1003 34.7729 56.8007 39.9688 57.0778C46.3333 57.4177 50.1708 57.1023 52.2362 54.8428C53.7733 53.1609 55.2413 50.494 55.2913 44.8224C55.282 42.9786 55.1288 40.8332 54.7863 38.3141C54.5866 36.8428 54.4089 35.5066 54.2503 34.2875C52.9773 26.7072 51.7992 25.3037 51.7992 25.3037L43.8554 22.8984L36.3483 24.21L34.2633 30.1191L34.1623 30.8805V31.0624C34.1623 31.0624 34.5448 30.0788 36.1303 30.1336C37.7158 30.1881 37.5513 29.4408 39.4096 27.3819C41.2685 25.3237 42.1793 27.9286 43.6477 29.1493C45.1161 30.37 47.1895 28.7484 49.5942 28.6755C51.9998 28.6023 51.5254 31.4814 51.0706 32.2651C50.6146 33.0485 50.1956 34.1598 51.654 34.6884C53.1111 35.2164 53.6207 35.4531 53.8039 39.0239C53.9855 42.5951 53.0202 45.1281 51.1796 46.3298C49.3397 47.5327 45.4589 47.2592 42.7621 45.2007C40.0656 43.1418 37.1407 45.1191 35.7297 45.7289C34.9844 46.0505 34.2614 45.6338 34.1627 45.5728V48.2593V48.7351C34.1623 48.7357 34.1559 48.8392 34.1523 49.016Z" fill="#E5A0B1"/>
<path d="M39.66 35.0293C39.371 37.3217 39.0269 39.9101 39.3307 42.2048C39.4423 43.0479 39.9399 43.7 41.078 43.4626C41.3689 43.4016 41.2451 43.0537 40.9545 43.1011C39.1662 43.3936 39.7815 39.6866 39.7986 39.0358C39.8351 37.7003 39.8996 36.3654 39.8851 35.0293C39.8835 34.9103 39.6738 34.9148 39.66 35.0293Z" fill="#EAAABA"/>
<path d="M43.3919 41.0484C43.9057 41.0484 44.3223 40.6318 44.3223 40.1179C44.3223 39.604 43.9057 39.1875 43.3919 39.1875C42.878 39.1875 42.4614 39.604 42.4614 40.1179C42.4614 40.6318 42.878 41.0484 43.3919 41.0484Z" fill="#1B1E28"/>
<path d="M36.3274 41.0484C36.8413 41.0484 37.2579 40.6318 37.2579 40.1179C37.2579 39.604 36.8413 39.1875 36.3274 39.1875C35.8135 39.1875 35.397 39.604 35.397 40.1179C35.397 40.6318 35.8135 41.0484 36.3274 41.0484Z" fill="#1B1E28"/>
<path d="M34.6136 36.8763C35.1596 36.6566 35.6121 36.348 36.2161 36.2741C36.8837 36.1906 37.4188 36.3844 38.0367 36.5941C38.2931 36.6805 38.3937 36.3274 38.208 36.1887C37.2198 35.4511 35.1612 35.5707 34.4381 36.6476C34.3659 36.754 34.4875 36.9276 34.6136 36.8763Z" fill="#1B1E28"/>
<path d="M42.5812 36.5874C43.1543 36.3652 43.6062 36.1172 44.248 36.1465C44.8897 36.1765 45.4125 36.4416 46.004 36.6509C46.2617 36.7425 46.3575 36.3852 46.1746 36.2455C45.2406 35.5322 43.165 35.2477 42.4051 36.3587C42.3309 36.4655 42.4551 36.6361 42.5812 36.5874Z" fill="#1B1E28"/>
<path d="M48.1854 41.8952C48.5153 42.7067 47.8887 43.7274 46.7851 44.176C45.6814 44.6253 44.5201 44.3308 44.1905 43.5197C43.8605 42.7099 44.4878 41.6888 45.5915 41.2396C46.6944 40.7919 47.8564 41.0848 48.1854 41.8952Z" fill="#EAAABA"/>
<path d="M35.6397 41.4183C35.1356 41.1922 34.6147 41.1235 34.1606 41.1909V44.2957C34.211 44.3222 34.2619 44.348 34.3151 44.3718C35.4242 44.8695 36.6211 44.6124 36.9865 43.7961C37.3522 42.9815 36.7488 41.9172 35.6397 41.4183Z" fill="#EAAABA"/>
<path d="M38.9072 38.5736C39.0988 40.5616 38.0083 42.4892 36.0007 43.0185C33.7373 43.6151 31.4349 42.0603 31.0853 39.7737C30.7577 37.6238 32.2483 35.6104 34.3949 35.2818C36.6209 34.9425 38.4711 36.4689 38.9107 38.603C38.9398 38.7413 39.15 38.6823 39.121 38.5453C38.663 36.3212 36.6838 34.6767 34.3475 35.0457C32.0951 35.4017 30.5164 37.5487 30.847 39.805C31.1769 42.0571 33.3503 43.6512 35.594 43.322C37.9335 42.9791 39.3439 40.8412 39.1258 38.573C39.1123 38.4353 38.894 38.4343 38.9072 38.5736Z" fill="#1B1E28"/>
<path d="M48.9323 39.2799C48.8165 41.4291 47.2046 43.2471 44.965 43.2471C42.8145 43.2471 40.9972 41.4291 40.9972 39.2799C40.9972 37.2774 42.5656 35.5626 44.5409 35.3569C46.9362 35.1089 48.8071 36.9414 48.9323 39.2799C48.9397 39.4195 49.1583 39.4205 49.1509 39.2799C49.028 37.0059 47.3387 35.094 44.965 35.094C42.6936 35.094 40.7679 37.0007 40.7789 39.2799C40.7895 41.4781 42.544 43.3377 44.7428 43.4529C47.202 43.5822 49.0235 41.641 49.1509 39.2799C49.1587 39.139 48.94 39.139 48.9323 39.2799Z" fill="#1B1E28"/>
<path d="M38.9371 39.0392C39.5373 39.1456 40.2575 39.1511 40.8615 39.0662C40.946 39.0546 40.946 38.9085 40.8615 38.8966C40.2575 38.8131 39.5386 38.8176 38.9371 38.924C38.879 38.9337 38.879 39.0285 38.9371 39.0392Z" fill="#1B1E28"/>
<path d="M48.8649 39.1129C51.176 39.2383 53.5194 39.1251 55.834 39.1042C56.015 39.1026 56.0156 38.8204 55.834 38.8217C53.5191 38.8404 51.1741 38.7659 48.8649 38.9307C48.7485 38.9391 48.7478 39.1064 48.8649 39.1129Z" fill="#1B1E28"/>
<path d="M63.3696 41.2077C61.6419 36.8041 55.024 39.8009 55.024 39.8009L54.4868 44.1081L57.7482 42.8628C57.8653 43.155 60.9059 43.2133 60.9059 43.2133L63.3696 41.2077Z" fill="#FAB9C9"/>
<path d="M57.5929 40.0122C59.407 39.7345 61.1589 41.3238 60.9528 43.1776C60.9212 43.4692 60.4603 43.4724 60.4916 43.1776C60.6609 41.6538 59.2619 40.2199 57.7151 40.4563C57.4248 40.5011 57.3 40.0573 57.5929 40.0122Z" fill="#E6A0B1"/>
<path d="M60.1038 41.3654C59.3436 41.6976 58.7747 42.311 58.5264 43.1063C58.4393 43.3895 57.9942 43.2685 58.0829 42.9841C58.3625 42.083 59.0034 41.3464 59.8712 40.9674C60.1412 40.85 60.376 41.2467 60.1038 41.3654Z" fill="#E6A0B1"/>
<path d="M36.8137 15.4448C34.1523 17.2438 33.6076 20.6646 34.8363 23.505C34.876 23.5972 35.0102 23.5172 34.9712 23.4263C33.7782 20.6701 34.3029 17.3295 36.8924 15.5793C36.9756 15.5232 36.8969 15.3877 36.8137 15.4448Z" fill="white"/>
<path d="M32.1832 34.6556C32.4061 35.1055 32.6102 35.5603 32.885 35.9815C32.9398 36.0653 33.0753 35.9873 33.0198 35.9028C32.7444 35.4813 32.5405 35.0265 32.318 34.5773C32.2735 34.4873 32.1387 34.5663 32.1832 34.6556Z" fill="white"/>
<path d="M51.8765 29.6779C51.8765 29.8515 51.8765 30.0243 51.8765 30.1978C51.8765 30.2981 52.0326 30.2981 52.0326 30.1978C52.0326 30.0243 52.0326 29.8515 52.0326 29.6779C52.0326 29.5776 51.8765 29.5776 51.8765 29.6779Z" fill="white"/>
<path d="M51.676 31.9261C51.6289 31.99 51.6192 32.0703 51.5721 32.1341C51.5121 32.2151 51.6476 32.2925 51.7069 32.2128C51.7547 32.149 51.7643 32.0687 51.8108 32.0048C51.8704 31.9239 51.735 31.8458 51.676 31.9261Z" fill="white"/>
<path d="M60.7088 31.6017C60.525 33.3532 60.5601 34.7552 61.2316 36.4048C61.2693 36.4967 61.42 36.4571 61.3822 36.3639C60.722 34.7413 60.6843 33.3184 60.8649 31.6017C60.8759 31.5014 60.7191 31.5023 60.7088 31.6017Z" fill="white"/>
<path d="M39.9686 57.0778C46.333 57.4177 50.1706 57.1023 52.2359 54.8428C54.3007 52.5836 56.2441 48.551 54.7857 37.8381C53.3286 27.1246 53.0309 23.3096 53.0309 23.3096L47.4941 20.3071L35.3993 21.0482L34.1621 30.4042V30.5861C34.1621 30.5861 34.5446 29.6028 36.1301 29.657C37.7155 29.7118 37.5511 28.9645 39.4094 26.906C41.2683 24.8477 42.1791 27.4526 43.6475 28.6733C45.1159 29.8937 47.1893 28.2724 49.5939 28.1996C51.9995 28.1263 51.5251 31.0051 51.0704 31.7888C50.6144 32.5725 50.1954 33.6835 51.6538 34.2121C53.1109 34.7404 53.6205 34.9768 53.8037 38.5476C53.9852 42.1188 53.02 44.6518 51.1794 45.8538C49.3395 47.0564 45.4587 46.7833 42.7619 44.7244C40.0654 42.6658 37.1405 44.6431 35.7295 45.253C34.9842 45.5742 34.2611 45.1575 34.1624 45.0969V48.2594C34.1621 48.2597 33.6042 56.7379 39.9686 57.0778Z" fill="#1B1E28"/>
<path d="M33.4169 25.1035C33.4736 26.7406 32.4751 28.0696 31.8575 29.5177C31.4208 30.541 31.3586 31.6505 31.3896 32.7451C31.3921 32.8454 31.5482 32.846 31.5453 32.7451C31.4983 31.0796 31.8788 29.7786 32.6058 28.2941C33.1298 27.2247 33.6149 26.3223 33.5726 25.1035C33.5694 25.0032 33.4133 25.0029 33.4169 25.1035Z" fill="white"/>
<path d="M51.8295 17.5889C53.6668 17.8698 55.5448 17.4818 57.3544 17.9956C60.8743 18.9938 60.0541 24.22 58.9569 26.676C58.916 26.7669 59.0508 26.8459 59.0911 26.7543C60.187 24.3023 60.6288 21.1188 58.9153 18.8335C57.406 16.821 53.9674 17.7589 51.8711 17.4386C51.773 17.4234 51.7301 17.5737 51.8295 17.5889Z" fill="white"/>
<path d="M42.9322 25.8312C43.0896 30.5373 48.9892 25.3091 51.0133 27.6541C51.0788 27.7299 51.1891 27.6196 51.1236 27.5435C49.0563 25.1478 43.236 30.2487 43.0886 25.8309C43.0854 25.7309 42.9293 25.7306 42.9322 25.8312Z" fill="white"/>
<path d="M39.7366 57.1911C42.3483 57.2081 45.0006 57.5249 47.6004 57.1443C50.3998 56.7344 52.3039 55.6459 53.762 53.2142C53.8136 53.1277 53.6788 53.0497 53.6271 53.1358C52.0272 55.8026 49.8047 56.7863 46.777 57.0775C44.4375 57.3023 42.0787 57.0501 39.7366 57.035C39.6366 57.0343 39.6366 57.1904 39.7366 57.1911Z" fill="white"/>
<path d="M39.362 47.0697C40.017 48.531 42.7219 47.9428 42.7245 46.347C42.7245 46.1767 42.4907 46.1135 42.4046 46.2606C42.0998 46.7801 41.9001 47.2684 41.2493 47.4361C40.5679 47.6122 40.0702 47.2516 39.5468 46.8843C39.4236 46.7982 39.313 46.9601 39.362 47.0697Z" fill="white"/>
<path d="M38.5415 68.7211C44.2112 75.3606 50.3957 74.4943 56.9166 68.7211L56.9172 95.9994H38.5418V68.7211H38.5415Z" fill="#F7F7F9"/>
<path d="M39.0388 61.8306L26.1538 66.2529C32.0899 76.4387 35.2309 86.3247 35.2038 95.8723H40.9629C43.9135 85.5709 42.9044 74.117 39.0388 61.8306Z" fill="#0D6EFD"/>
<path d="M58.068 61.8306L70.9532 66.2529C65.0165 76.4387 61.8758 86.3247 61.9026 95.8723H56.1435C53.1938 85.5709 54.2027 74.117 58.068 61.8306Z" fill="#0D6EFD"/>
</g>
</svg>
