<svg width="37" height="37" viewBox="0 0 37 37" fill="none" xmlns="http://www.w3.org/2000/svg">
<circle cx="18.5" cy="18.5" r="18.5" fill="#FFDFE6"/>
<mask id="mask0_1_844" style="mask-type:alpha" maskUnits="userSpaceOnUse" x="0" y="0" width="37" height="37">
<circle cx="18.5" cy="18.5" r="18.5" fill="#FFEADF"/>
</mask>
<g mask="url(#mask0_1_844)">
<path d="M7.63411 27.2706L6.46755 36.9999H-0.743164L-0.504133 35.3866C-0.417123 34.3253 -0.151366 33.3063 0.266658 32.3563C0.975299 30.7723 2.14597 29.4832 3.58301 28.5983V28.5958C3.6566 28.5488 3.73068 28.5088 3.80427 28.4639C4.95927 27.7983 6.26643 27.3825 7.63411 27.2706Z" fill="#186BE7"/>
<path d="M37.3183 36.9999H30.0872L28.8447 26.6204C29.6654 26.6876 30.4672 26.8641 31.2247 27.1409C33.4127 27.932 35.2516 29.5366 36.2126 31.7105C36.6306 32.6537 36.8941 33.6749 36.9833 34.7365L37.3183 36.9999Z" fill="#186BE7"/>
<path d="M32.4756 27.7939L31.2427 37H4.6868L3.58301 28.5983V28.5958C3.65659 28.5488 3.73068 28.5088 3.80426 28.4639C5.4704 27.4814 9.25288 26.3512 11.9549 25.6179C13.8613 25.1009 15.8279 24.8446 17.8038 24.8536L19.9047 24.8635C21.3716 24.8701 22.8332 25.0239 24.2698 25.3217C26.5946 25.803 30.044 26.5757 31.2241 27.1411C31.6761 27.3532 32.0937 27.5726 32.4756 27.7939Z" fill="#0D6EFD"/>
<path d="M24.4292 15.8821C24.4292 15.8821 25.0247 17.5151 22.3619 18.464L22.5472 31.8101L14.6484 28.2696L15.3494 20.5549L18.3797 19.2526L19.1023 17.9473C19.1023 17.9473 20.1513 16.5939 20.278 16.4606C20.4046 16.3273 21.5269 15.3399 21.5269 15.3399L23.9388 16.0677L24.4292 15.8821Z" fill="#FAB9C9"/>
<path d="M21.002 19.8336C21.4975 17.8702 20.2173 17.9432 18.7809 18.5297L18.3807 19.2525L15.5689 20.4608L15.2711 21.5074L14.9932 24.8484C14.993 24.8484 19.9897 23.8465 21.002 19.8336Z" fill="#1B1E28"/>
<path d="M13.1617 14.794C13.1617 14.794 10.9704 13.8008 11.7401 11.5478C12.5096 9.29469 12.5287 9.29481 12.369 8.23278C12.209 7.17088 12.6175 4.52724 15.7192 5.26795C18.8211 6.00878 19.2411 6.08883 20.8242 5.42768C22.4073 4.76652 24.5914 6.20916 24.2507 9.71532C23.9613 12.6954 23.3296 11.8712 23.93 13.4672C24.5306 15.0631 24.1774 15.462 23.1249 15.7136C20.6865 16.2963 19.5022 15.1344 19.5022 15.0795C19.5022 15.0247 19.0212 13.8026 18.7207 13.6424C18.4201 13.482 15.6751 12.7208 15.6151 12.8008C15.555 12.8809 14.6489 14.1381 14.6489 14.1381L13.1617 14.794Z" fill="#1B1E28"/>
<path d="M11.9098 15.1246C12.8004 15.1731 13.7036 15.1295 14.5958 15.1213C14.6655 15.1207 14.6658 15.012 14.5958 15.0126C13.7036 15.0197 12.7998 14.991 11.9098 15.0547C11.8649 15.0576 11.8645 15.1225 11.9098 15.1246Z" fill="#1B1E28"/>
<path d="M13.1669 11.7184V18.6001C13.1669 18.6001 12.9519 21.8677 15.4048 21.9988C17.8578 22.1298 19.3368 22.0082 20.1329 21.1373C20.9286 20.2666 21.6777 18.7124 21.1156 14.5834C20.554 10.4543 19.9643 9.75236 19.9643 9.75236L16.9026 8.82532L14.0093 9.33085L13.1669 11.7184Z" fill="#FAB9C9"/>
<path d="M13.1631 18.8916C13.1781 19.695 13.4022 21.892 15.4049 21.9987C17.8578 22.1298 19.3369 22.0082 20.1329 21.1373C20.7253 20.4891 21.2911 19.4613 21.3104 17.2753C21.3068 16.5647 21.2478 15.7378 21.1157 14.7669C21.0388 14.1998 20.9703 13.6849 20.9092 13.215C20.4185 10.2934 19.9645 9.75248 19.9645 9.75248L16.9028 8.82544L14.0095 9.33097L13.2058 11.6084L13.1669 11.9019V11.972C13.1669 11.972 13.3144 11.5929 13.9254 11.614C14.5365 11.635 14.4731 11.347 15.1893 10.5535C15.9058 9.76018 16.2568 10.7642 16.8228 11.2346C17.3887 11.7051 18.1878 11.0801 19.1146 11.052C20.0418 11.0238 19.8589 12.1335 19.6837 12.4355C19.5079 12.7374 19.3464 13.1658 19.9085 13.3695C20.4701 13.573 20.6665 13.6642 20.7371 15.0405C20.8071 16.4169 20.4351 17.3931 19.7257 17.8563C19.0165 18.3199 17.5208 18.2145 16.4814 17.4211C15.4421 16.6276 14.3149 17.3897 13.771 17.6247C13.4838 17.7486 13.2051 17.588 13.1671 17.5646V18.6V18.7833C13.1669 18.7836 13.1645 18.8235 13.1631 18.8916Z" fill="#E5A0B1"/>
<path d="M15.2858 13.5009C15.1744 14.3844 15.0418 15.3821 15.1589 16.2665C15.2019 16.5914 15.3937 16.8427 15.8323 16.7512C15.9444 16.7277 15.8967 16.5936 15.7847 16.6119C15.0955 16.7246 15.3326 15.2959 15.3392 15.0451C15.3533 14.5303 15.3781 14.0159 15.3725 13.5009C15.3719 13.455 15.2911 13.4568 15.2858 13.5009Z" fill="#EAAABA"/>
<path d="M16.7238 15.8207C16.9219 15.8207 17.0825 15.6602 17.0825 15.4621C17.0825 15.2641 16.9219 15.1035 16.7238 15.1035C16.5258 15.1035 16.3652 15.2641 16.3652 15.4621C16.3652 15.6602 16.5258 15.8207 16.7238 15.8207Z" fill="#1B1E28"/>
<path d="M14.0012 15.8207C14.1992 15.8207 14.3598 15.6602 14.3598 15.4621C14.3598 15.2641 14.1992 15.1035 14.0012 15.1035C13.8031 15.1035 13.6426 15.2641 13.6426 15.4621C13.6426 15.6602 13.8031 15.8207 14.0012 15.8207Z" fill="#1B1E28"/>
<path d="M13.3406 14.2127C13.551 14.1281 13.7254 14.0091 13.9583 13.9807C14.2156 13.9485 14.4218 14.0232 14.6599 14.104C14.7588 14.1373 14.7975 14.0012 14.7259 13.9477C14.3451 13.6635 13.5517 13.7096 13.273 14.1246C13.2451 14.1656 13.292 14.2325 13.3406 14.2127Z" fill="#1B1E28"/>
<path d="M16.4114 14.1014C16.6323 14.0158 16.8065 13.9202 17.0538 13.9315C17.3012 13.9431 17.5027 14.0452 17.7306 14.1259C17.83 14.1612 17.8669 14.0235 17.7964 13.9697C17.4364 13.6947 16.6364 13.5851 16.3436 14.0133C16.315 14.0544 16.3628 14.1202 16.4114 14.1014Z" fill="#1B1E28"/>
<path d="M18.5717 16.1471C18.6988 16.4599 18.4573 16.8533 18.0319 17.0262C17.6066 17.1993 17.159 17.0859 17.0319 16.7732C16.9048 16.4611 17.1465 16.0676 17.5719 15.8944C17.997 15.7219 18.4449 15.8348 18.5717 16.1471Z" fill="#EAAABA"/>
<path d="M13.7361 15.9633C13.5418 15.8762 13.341 15.8497 13.166 15.8757V17.0723C13.1854 17.0825 13.205 17.0925 13.2256 17.1017C13.653 17.2935 14.1143 17.1944 14.2551 16.8798C14.3961 16.5658 14.1635 16.1556 13.7361 15.9633Z" fill="#EAAABA"/>
<path d="M14.9955 14.8669C15.0693 15.6331 14.649 16.3761 13.8753 16.5801C13.0029 16.81 12.1155 16.2108 11.9808 15.3295C11.8545 14.5009 12.429 13.7249 13.2564 13.5982C14.1143 13.4674 14.8274 14.0557 14.9968 14.8782C15.008 14.9316 15.0891 14.9088 15.0779 14.856C14.9014 13.9988 14.1385 13.365 13.2381 13.5072C12.37 13.6444 11.7615 14.4719 11.8889 15.3415C12.0161 16.2095 12.8538 16.8239 13.7185 16.697C14.6202 16.5649 15.1638 15.7409 15.0797 14.8667C15.0745 14.8136 14.9904 14.8132 14.9955 14.8669Z" fill="#1B1E28"/>
<path d="M18.8593 15.1392C18.8146 15.9675 18.1934 16.6682 17.3302 16.6682C16.5014 16.6682 15.801 15.9675 15.801 15.1392C15.801 14.3674 16.4054 13.7065 17.1668 13.6272C18.09 13.5316 18.811 14.2378 18.8593 15.1392C18.8621 15.193 18.9464 15.1933 18.9435 15.1392C18.8962 14.2627 18.2451 13.5258 17.3302 13.5258C16.4548 13.5258 15.7126 14.2607 15.7168 15.1392C15.7209 15.9864 16.3971 16.7031 17.2446 16.7475C18.1924 16.7973 18.8944 16.0492 18.9435 15.1392C18.9465 15.0848 18.8623 15.0848 18.8593 15.1392Z" fill="#1B1E28"/>
<path d="M15.007 15.0464C15.2383 15.0874 15.5159 15.0895 15.7487 15.0568C15.7813 15.0524 15.7813 14.9961 15.7487 14.9915C15.5159 14.9593 15.2388 14.961 15.007 15.002C14.9846 15.0057 14.9846 15.0423 15.007 15.0464Z" fill="#1B1E28"/>
<path d="M18.8336 15.0748C19.7243 15.1232 20.6275 15.0795 21.5196 15.0715C21.5893 15.0708 21.5896 14.9621 21.5196 14.9626C20.6273 14.9698 19.7235 14.9411 18.8336 15.0046C18.7887 15.0078 18.7884 15.0723 18.8336 15.0748Z" fill="#1B1E28"/>
<path d="M24.4236 15.8821C23.7577 14.1849 21.207 15.3399 21.207 15.3399L21 17L22.257 16.5201C22.3021 16.6327 23.474 16.6552 23.474 16.6552L24.4236 15.8821Z" fill="#FAB9C9"/>
<path d="M22.1972 15.4214C22.8964 15.3143 23.5716 15.9269 23.4922 16.6414C23.48 16.7537 23.3024 16.755 23.3144 16.6414C23.3797 16.054 22.8405 15.5014 22.2443 15.5925C22.1324 15.6098 22.0843 15.4388 22.1972 15.4214Z" fill="#E6A0B1"/>
<path d="M23.1652 15.9429C22.8722 16.0709 22.6529 16.3074 22.5572 16.6139C22.5237 16.723 22.3521 16.6764 22.3863 16.5668C22.4941 16.2195 22.7411 15.9356 23.0756 15.7895C23.1796 15.7443 23.2701 15.8972 23.1652 15.9429Z" fill="#E6A0B1"/>
<path d="M14.1885 5.95269C13.1628 6.64604 12.9528 7.9645 13.4264 9.05922C13.4417 9.09477 13.4934 9.06395 13.4784 9.02889C13.0186 7.96662 13.2208 6.67911 14.2188 6.00452C14.2509 5.9829 14.2206 5.93069 14.1885 5.95269Z" fill="white"/>
<path d="M12.4038 13.3569C12.4897 13.5303 12.5684 13.7055 12.6743 13.8679C12.6954 13.9002 12.7476 13.8701 12.7263 13.8375C12.6201 13.6751 12.5415 13.4998 12.4558 13.3267C12.4386 13.292 12.3867 13.3224 12.4038 13.3569Z" fill="white"/>
<path d="M19.9941 11.4384C19.9941 11.5053 19.9941 11.5719 19.9941 11.6388C19.9941 11.6774 20.0543 11.6774 20.0543 11.6388C20.0543 11.5719 20.0543 11.5053 20.0543 11.4384C20.0543 11.3997 19.9941 11.3997 19.9941 11.4384Z" fill="white"/>
<path d="M19.9169 12.3049C19.8987 12.3295 19.895 12.3604 19.8769 12.385C19.8538 12.4162 19.906 12.4461 19.9288 12.4154C19.9472 12.3908 19.951 12.3598 19.9689 12.3352C19.9919 12.304 19.9396 12.2739 19.9169 12.3049Z" fill="white"/>
<path d="M23.3981 12.1798C23.3273 12.8549 23.3408 13.3952 23.5996 14.031C23.6142 14.0665 23.6722 14.0512 23.6577 14.0153C23.4032 13.3899 23.3887 12.8415 23.4583 12.1798C23.4625 12.1412 23.4021 12.1415 23.3981 12.1798Z" fill="white"/>
<path d="M15.4047 21.9988C17.8577 22.1298 19.3368 22.0082 20.1328 21.1374C20.9286 20.2666 21.6776 18.7124 21.1155 14.5835C20.5539 10.4543 20.4392 8.98393 20.4392 8.98393L18.3052 7.82669L13.6436 8.11233L13.1668 11.7183V11.7884C13.1668 11.7884 13.3142 11.4094 13.9253 11.4303C14.5364 11.4514 14.473 11.1634 15.1892 10.37C15.9057 9.57673 16.2567 10.5807 16.8226 11.0512C17.3886 11.5215 18.1877 10.8967 19.1145 10.8686C20.0417 10.8404 19.8588 11.9499 19.6836 12.2519C19.5078 12.554 19.3463 12.9822 19.9084 13.1859C20.47 13.3895 20.6664 13.4807 20.737 14.8569C20.807 16.2333 20.435 17.2096 19.7256 17.6728C19.0164 18.1363 17.5207 18.0311 16.4813 17.2375C15.442 16.4441 14.3147 17.2062 13.7709 17.4413C13.4837 17.5651 13.205 17.4045 13.1669 17.3811V18.6C13.1668 18.6001 12.9518 21.8677 15.4047 21.9988Z" fill="#1B1E28"/>
<path d="M12.8797 9.67531C12.9015 10.3063 12.5167 10.8185 12.2787 11.3766C12.1104 11.771 12.0864 12.1986 12.0983 12.6205C12.0993 12.6592 12.1595 12.6594 12.1583 12.6205C12.1402 11.9786 12.2869 11.4772 12.567 10.905C12.769 10.4928 12.956 10.145 12.9397 9.67531C12.9385 9.63665 12.8783 9.63653 12.8797 9.67531Z" fill="white"/>
<path d="M19.9759 6.77907C20.684 6.88734 21.4078 6.7378 22.1053 6.93582C23.4619 7.32053 23.1458 9.33483 22.7229 10.2814C22.7071 10.3164 22.7591 10.3469 22.7746 10.3116C23.197 9.36652 23.3673 8.13955 22.7069 7.25875C22.1252 6.48311 20.7999 6.84458 19.9919 6.72115C19.9541 6.7153 19.9376 6.77323 19.9759 6.77907Z" fill="white"/>
<path d="M16.5469 9.95581C16.6075 11.7696 18.8814 9.75457 19.6615 10.6584C19.6867 10.6876 19.7292 10.6451 19.704 10.6157C18.9072 9.69242 16.664 11.6584 16.6072 9.95569C16.6059 9.91716 16.5458 9.91703 16.5469 9.95581Z" fill="white"/>
<path d="M15.315 22.0424C16.3216 22.049 17.3439 22.171 18.3459 22.0243C19.4248 21.8664 20.1587 21.4468 20.7206 20.5096C20.7405 20.4763 20.6886 20.4462 20.6687 20.4794C20.052 21.5073 19.1955 21.8864 18.0285 21.9986C17.1268 22.0853 16.2177 21.9881 15.315 21.9822C15.2765 21.982 15.2765 22.0421 15.315 22.0424Z" fill="white"/>
<path d="M15.1706 18.1415C15.4231 18.7047 16.4656 18.4779 16.4666 17.8629C16.4666 17.7973 16.3764 17.7729 16.3433 17.8296C16.2258 18.0298 16.1488 18.218 15.898 18.2827C15.6354 18.3505 15.4436 18.2116 15.2418 18.07C15.1943 18.0368 15.1517 18.0992 15.1706 18.1415Z" fill="white"/>
<path d="M14.8545 26.4863C17.0397 29.0453 19.4233 28.7114 21.9366 26.4863L21.9368 36.9998H14.8546V26.4863H14.8545Z" fill="#E3EEF1"/>
<path d="M15.0462 23.8306L10.0801 25.535C12.368 29.4608 13.5785 33.271 13.5681 36.9508H15.7877C16.925 32.9805 16.536 28.566 15.0462 23.8306Z" fill="#186BE7"/>
<path d="M22.3804 23.8306L27.3466 25.535C25.0585 29.4608 23.848 33.271 23.8584 36.9508H21.6387C20.5019 32.9805 20.8907 28.566 22.3804 23.8306Z" fill="#186BE7"/>
</g>
</svg>
